#tb 0: 1/100
0,          0,          0,        1,      507, 0xde1f113a
0,         10,         10,        1,      193, 0x6c2448d4
0,         20,         20,        1,      130, 0x2c222a38
0,         30,         30,        1,      395, 0x0c139f90
0,         40,         40,        1,      431, 0x4093bb5e
0,         50,         50,        1,      466, 0x307ecb19
0,         60,         60,        1,      542, 0xe8fae7d2
0,         70,         70,        1,      597, 0x5b7f0870
0,         80,         80,        1,      969, 0xefb6cd0c
0,         90,         90,        1,     1044, 0x6500f3ee
0,        100,        100,        1,     1185, 0xb3602d63
0,        110,        110,        1,     1273, 0x84ca6006
0,        120,        120,        1,     1352, 0x86aa8986
0,        130,        130,        1,     1428, 0xeb1da79d
0,        140,        140,        1,     1488, 0x6549cd84
0,        150,        150,        1,     1428, 0x3c1f8b5e
0,        160,        160,        1,     1709, 0xd9ab39f1
0,        170,        170,        1,     1834, 0x9b5865c8
0,        180,        180,        1,     1933, 0x3e5e8fa8
0,        190,        190,        1,     1944, 0x67448c6f
0,        200,        200,        1,     2170, 0xafa60bdd
0,        210,        210,        1,     2051, 0xe603ba51
0,        220,        220,        1,     2250, 0x10d74679
0,        230,        230,        1,     2334, 0xc9224dc4
0,        240,        240,        1,     2267, 0xa1cc3467
0,        250,        250,        1,     2447, 0xc1248bb6
0,        260,        260,        1,     2552, 0x5193b550
0,        270,        270,        1,     2450, 0x990c82c5
0,        280,        280,        1,     2893, 0xccf35e77
0,        290,        290,        1,     2905, 0x64d45dc1
0,        300,        300,        1,     3158, 0x103d0545
0,        310,        310,        1,     3276, 0x7dd92526
0,        320,        320,        1,     3439, 0x1ca57e83
0,        330,        330,        1,     3481, 0x4cad6dd3
0,        340,        340,        1,     3641, 0xac67bebf
0,        350,        350,        1,     3727, 0xc88df63a
0,        360,        360,        1,     3826, 0x319e3e11
0,        370,        370,        1,     3933, 0x3d066774
0,        380,        380,        1,     3944, 0x3d585bb8
0,        390,        390,        1,     4011, 0x815286ac
0,        400,        400,        1,     4119, 0xcd9dba95
0,        410,        410,        1,     4132, 0x52259b57
0,        420,        420,        1,     4332, 0xa5f037b6
0,        430,        430,        1,     4400, 0xe03653c6
0,        440,        440,        1,     4376, 0x52b71156
0,        450,        450,        1,     4483, 0x8cf671c2
0,        460,        460,        1,     4623, 0xd632c8a6
0,        470,        470,        1,     4692, 0xa0b6f5a0
0,        480,        480,        1,     4752, 0xbd86228c
0,        490,        490,        1,     4947, 0x943688c9
0,        500,        500,        1,     5076, 0xc6e6bb8e
0,        510,        510,        1,     5189, 0x1963f89b
0,        520,        520,        1,     5287, 0x3ace3762
0,        530,        530,        1,     5414, 0x0c0eb25b
0,        540,        540,        1,     5688, 0x62d90e2c
0,        550,        550,        1,     5806, 0xf2514244
0,        560,        560,        1,     5905, 0xc69e829a
0,        570,        570,        1,     6056, 0xdfdfc029
0,        580,        580,        1,     6126, 0x0071e896
0,        590,        590,        1,     6203, 0xdc57bc5d
0,        600,        600,        1,     6313, 0x307a167b
0,        610,        610,        1,     6416, 0x8e471ea1
0,        620,        620,        1,     6471, 0x581d5221
0,        630,        630,        1,     6552, 0x6e957723
0,        640,        640,        1,     6650, 0xa39cae03
0,        650,        650,        1,     6811, 0x7680fe85
0,        660,        660,        1,     6966, 0xbef763ea
0,        670,        670,        1,     7063, 0x1786757b
0,        680,        680,        1,     7107, 0xb418701d
0,        690,        690,        1,     7163, 0x0a996e5e
0,        700,        700,        1,     7169, 0x94cd92ac
0,        710,        710,        1,     7255, 0x9e27c671
0,        720,        720,        1,     7355, 0x5ae7ed7d
0,        730,        730,        1,     7407, 0x0ad4094a
0,        740,        740,        1,     7485, 0xf2de3823
0,        750,        750,        1,     7512, 0x2d5b4942
0,        760,        760,        1,     7495, 0x039fea5a
0,        770,        770,        1,     7602, 0x185644b9
0,        780,        780,        1,     7677, 0x5427764e
0,        790,        790,        1,     7824, 0x3c1bdfc6
0,        800,        800,        1,     7975, 0xd97a0dc3
0,        810,        810,        1,     8093, 0xb9c04303
0,        820,        820,        1,     8249, 0x8f006a33
0,        830,        830,        1,     8288, 0xc734a06f
0,        840,        840,        1,     8418, 0x962ee9ee
0,        850,        850,        1,     8508, 0x65e71dd7
0,        860,        860,        1,     8563, 0x67ca31c5
0,        870,        870,        1,     8676, 0xc87179ea
0,        880,        880,        1,     8779, 0x80b07aee
0,        890,        890,        1,     8897, 0xdde8ca43
0,        900,        900,        1,     9036, 0x1373160a
0,        910,        910,        1,     9050, 0x2fbb0e01
0,        920,        920,        1,     9102, 0xe69b2dfc
0,        930,        930,        1,     9207, 0xd3a53360
0,        940,        940,        1,     9227, 0x8e10446b
0,        950,        950,        1,     9480, 0x42aee212
0,        960,        960,        1,     9548, 0x5ad7fe46
0,        970,        970,        1,     9756, 0xf8387efc
0,        980,        980,        1,     9884, 0x09207bce
0,        990,        990,        1,     9960, 0x1c52d8cc
0,       1000,       1000,        1,    10020, 0x31860047
0,       1010,       1010,        1,    10107, 0x2c3b141f
0,       1020,       1020,        1,    10268, 0xc18a6dd5
0,       1030,       1030,        1,    10409, 0xc8efb2ca
0,       1040,       1040,        1,    10512, 0x70460090
0,       1050,       1050,        1,    10667, 0x0c093e54
0,       1060,       1060,        1,    10789, 0x12f4b600
0,       1070,       1070,        1,    10807, 0xdf2666f0
0,       1080,       1080,        1,    11051, 0x9f2fbe4b
0,       1090,       1090,        1,    11121, 0xc2221f4f
0,       1100,       1100,        1,    11243, 0x834538ee
0,       1110,       1110,        1,    11412, 0x69cf93d0
0,       1120,       1120,        1,    11446, 0xb3ebc432
0,       1130,       1130,        1,    11592, 0xe773219d
0,       1140,       1140,        1,    11666, 0x4b010ef2
0,       1150,       1150,        1,    11767, 0xfc994ccf
0,       1160,       1160,        1,    11805, 0x867db358
0,       1170,       1170,        1,    11878, 0xb1f99cd5
0,       1180,       1180,        1,    11980, 0x8e7cb628
0,       1190,       1190,        1,    12065, 0xe8a6c8fb
0,       1200,       1200,        1,    12142, 0x120f0868
0,       1210,       1210,        1,    12294, 0x0e2a815f
0,       1220,       1220,        1,    12358, 0x9ec44f74
0,       1230,       1230,        1,    12415, 0x57984d3e
0,       1240,       1240,        1,    12484, 0x60e792ef
0,       1250,       1250,        1,    12637, 0xda550e79
0,       1260,       1260,        1,    12705, 0x387416aa
0,       1270,       1270,        1,    12884, 0x93d565b1
0,       1280,       1280,        1,    12934, 0xcc3acd63
0,       1290,       1290,        1,    13018, 0x5d19e50a
0,       1300,       1300,        1,    13120, 0x1d79d417
0,       1310,       1310,        1,    13379, 0x68834368
0,       1320,       1320,        1,    13442, 0x74a5a323
0,       1330,       1330,        1,    13496, 0x542ba103
0,       1340,       1340,        1,    13638, 0x4ed3cdb9
0,       1350,       1350,        1,    13672, 0xb0cea3a7
0,       1360,       1360,        1,    13780, 0x69cc1216
0,       1370,       1370,        1,    14041, 0x26a159bb
0,       1380,       1380,        1,    14177, 0xca8bcad9
0,       1390,       1390,        1,    14386, 0x1a810f09
0,       1400,       1400,        1,    14464, 0x89e15cc3
0,       1410,       1410,        1,    14503, 0x28e335ba
0,       1420,       1420,        1,    14620, 0x87039b52
0,       1430,       1430,        1,    14786, 0xf594e3da
0,       1440,       1440,        1,    14954, 0x27b6efb8
0,       1450,       1450,        1,    15113, 0x59619847
0,       1460,       1460,        1,    15237, 0x5533afb0
0,       1470,       1470,        1,    15258, 0xca92b037
0,       1480,       1480,        1,    15401, 0xe645ea07
0,       1490,       1490,        1,    15485, 0x2e3fd45d
0,       1500,       1500,        1,    15590, 0x839785f6
0,       1510,       1510,        1,    15639, 0x286b947f
0,       1520,       1520,        1,    15710, 0xe109b479
0,       1530,       1530,        1,    15845, 0xb983e576
0,       1540,       1540,        1,    15819, 0x0f870857
0,       1550,       1550,        1,    15934, 0x1d4f099f
0,       1560,       1560,        1,    16086, 0x52118670
0,       1570,       1570,        1,    16134, 0xbc6e9e1c
0,       1580,       1580,        1,    16235, 0xd550b479
0,       1590,       1590,        1,    16255, 0x78a598da
0,       1600,       1600,        1,    16553, 0x6abd2c56
0,       1610,       1610,        1,    16670, 0xe7405032
0,       1620,       1620,        1,    16849, 0xe3cb8052
0,       1630,       1630,        1,    16961, 0x5bb8144b
0,       1640,       1640,        1,    16964, 0x412d2c8b
0,       1650,       1650,        1,    17178, 0x27038f39
0,       1660,       1660,        1,    17233, 0x5be26ca6
0,       1670,       1670,        1,    17377, 0x95e37b15
0,       1680,       1680,        1,    17479, 0x7fd78720
0,       1690,       1690,        1,    17498, 0x643e7d0a
0,       1700,       1700,        1,    17620, 0x926b1baa
0,       1710,       1710,        1,    17560, 0xba04651e
0,       1720,       1720,        1,    17648, 0xf4391cc1
